HIERARCHY
ROOT Hips
{
	OFFSET 0.000000 88.474243 0.000000
	CHANNELS 6 Xposition Yposition Zposition Zrotation Yrotation Xrotation 
	JOINT Hips_Spine
	{
		OFFSET 0.000000 0.000000 0.000000
		CHANNELS 3 Zrotation Yrotation Xrotation
		JOINT Spine
		{
			OFFSET 0.005100 8.711998 -0.691000
			CHANNELS 3 Zrotation Yrotation Xrotation
			JOINT Spine1
			{
				OFFSET -0.009200 8.660301 -1.275000
				CHANNELS 3 Zrotation Yrotation Xrotation
				JOINT Spine2
				{
					OFFSET 0.006300 9.852501 -1.857000
					CHANNELS 3 Zrotation Yrotation Xrotation
					JOINT Spine2_Neck
					{
						OFFSET 0.000000 0.000000 0.000000
						CHANNELS 3 Zrotation Yrotation Xrotation
						JOINT Neck
						{
							OFFSET 0.016300 11.420799 -0.263300
							CHANNELS 3 Zrotation Yrotation Xrotation
							End Site #name: Head
							{
								OFFSET -0.019200 9.262405 2.362500
							}
						}
					}
					JOINT Spine2_LeftShoulder
					{
						OFFSET 0.000000 0.000000 0.000000
						CHANNELS 3 Zrotation Yrotation Xrotation
						JOINT LeftShoulder
						{
							OFFSET 5.616900 6.732201 -0.345700
							CHANNELS 3 Zrotation Yrotation Xrotation
							JOINT LeftArm
							{
								OFFSET 10.664888 -0.183372 -2.440700
								CHANNELS 3 Zrotation Yrotation Xrotation
								JOINT LeftForeArm
								{
									OFFSET 27.459126 0.000000 0.000000
									CHANNELS 3 Zrotation Yrotation Xrotation
									End Site #name: LeftHand
									{
										OFFSET 21.306858 0.000000 0.000000
									}
								}
							}
						}
					}
					JOINT Spine2_RightShoulder
					{
						OFFSET 0.000000 0.000000 0.000000
						CHANNELS 3 Zrotation Yrotation Xrotation
						JOINT RightShoulder
						{
							OFFSET -5.580300 6.737503 -0.344400
							CHANNELS 3 Zrotation Yrotation Xrotation
							JOINT RightArm
							{
								OFFSET -10.679335 -0.188484 -2.383900
								CHANNELS 3 Zrotation Yrotation Xrotation
								JOINT RightForeArm
								{
									OFFSET -27.503529 0.000000 0.000000
									CHANNELS 3 Zrotation Yrotation Xrotation
									End Site #name: RightHand
									{
										OFFSET -21.306808 0.000000 0.000000
									}
								}
							}
						}
					}
				}
			}
		}
	}
	JOINT Hips_LeftUpLeg
	{
		OFFSET 0.000000 0.000000 0.000000
		CHANNELS 3 Zrotation Yrotation Xrotation
		JOINT LeftUpLeg
		{
			OFFSET 6.857700 -6.739601 0.312100
			CHANNELS 3 Zrotation Yrotation Xrotation
			JOINT LeftLeg
			{
				OFFSET -0.367590 -34.731552 -4.572400
				CHANNELS 3 Zrotation Yrotation Xrotation
				End Site #name: LeftFoot
				{
					OFFSET 0.367590 -34.656704 -6.067400
				}
			}
		}
	}
	JOINT Hips_RightUpLeg
	{
		OFFSET 0.000000 0.000000 0.000000
		CHANNELS 3 Zrotation Yrotation Xrotation
		JOINT RightUpLeg
		{
			OFFSET -6.876100 -6.733299 0.301000
			CHANNELS 3 Zrotation Yrotation Xrotation
			JOINT RightLeg
			{
				OFFSET 0.347353 -34.795158 -4.515900
				CHANNELS 3 Zrotation Yrotation Xrotation
				End Site #name: RightFoot
				{
					OFFSET -0.347353 -34.589367 -6.070300
				}
			}
		}
	}
}
MOTION
Frames: 10
Frame Time: 0.041667
-0.121379 0.095164 0.174299 -3.076525 1.487468 -6.687961 -0.000000 0.000000 0.000000 -0.345236 0.970803 5.142006 -0.302331 0.954355 8.542317 0.000000 0.000000 0.000000 -1.287523 1.018837 9.418926 -0.984444 -2.759863 2.986628 -0.901456 0.837746 8.295590 -4.112099 -4.395779 0.494335 -66.654649 -21.930681 15.638325 23.540053 -84.514826 -24.852401 -0.598253 1.486850 8.398094 -3.613628 4.347367 1.883466 75.745638 8.689437 3.761331 7.748617 84.544400 8.529144 0.000000 -0.000000 0.000000 6.648515 0.674435 -17.545433 -0.007751 2.009631 31.342027 0.000000 0.000000 0.000000 -4.520576 -3.145333 -14.912048 -1.785686 -3.212232 27.755747 
-0.124925 0.076929 0.224405 -3.584489 -1.865137 -6.095572 -0.000000 0.000000 0.000000 -0.379754 0.477829 4.269854 -1.109967 1.466144 9.832102 0.000000 0.000000 0.000000 -1.475966 1.564541 10.059220 -1.421093 -3.342567 3.731103 -1.639223 1.133474 9.796021 -1.483566 -0.536541 -0.047144 -70.335420 -21.874120 27.011698 173.984329 -84.837033 -173.849849 -1.008956 1.019029 9.187208 -4.378096 -0.073542 1.662402 84.147733 0.357209 2.078260 -175.862404 83.153680 -175.270824 -0.000000 -0.000000 0.000000 7.645607 1.579889 -21.479215 0.488338 1.807606 34.057277 0.000000 -0.000000 0.000000 -2.818748 -2.645250 -14.366974 -0.068211 -2.020635 26.428957 
0.030770 -0.002650 0.081340 -3.678101 -5.111914 -4.410829 -0.000000 0.000000 0.000000 -0.616283 0.730730 3.807185 -1.693483 1.580754 10.611873 0.000000 0.000000 0.000000 -2.052604 1.526232 11.241489 -1.052195 -3.099312 3.794078 -1.823659 1.375164 10.564646 -0.375149 0.681142 -0.219064 -71.951603 -17.210169 33.057200 177.267402 -80.535019 -177.270498 -1.310064 1.208087 9.796837 -4.092682 -1.860406 1.230947 80.838267 -6.779877 3.845163 -174.040210 83.818254 -173.403333 -0.000000 -0.000000 0.000000 6.222039 0.720228 -22.658728 -0.613228 0.657704 37.806212 0.000000 -0.000000 0.000000 -2.735959 -2.597220 -15.664213 0.345539 -1.709679 26.520587 
0.187525 -0.038316 0.039598 -3.793163 -6.863813 -3.206646 -0.000000 -0.000000 0.000000 -0.649327 0.857489 3.836428 -1.903345 1.783030 10.855265 0.000000 0.000000 0.000000 -2.058494 1.570989 11.072513 -1.242806 -3.370275 4.390626 -1.896943 1.485639 10.874868 0.679570 0.819382 -0.085940 -71.976938 -15.195583 33.373704 179.546874 -78.909368 -179.784695 -1.501735 1.401941 9.936620 -5.130298 -2.809606 1.372439 79.367204 -10.718667 5.883143 -173.353386 82.620625 -173.254948 -0.000000 -0.000000 0.000000 5.878642 0.115313 -23.032377 -1.320360 0.017197 38.022639 0.000000 -0.000000 0.000000 -2.648664 -2.374398 -16.486454 0.624081 -1.328928 25.742280 
0.334439 -0.038625 0.084425 -4.351432 -6.884485 -2.525051 -0.000000 -0.000000 0.000000 -0.589454 0.879061 4.258528 -2.016662 1.776633 10.568396 0.000000 0.000000 0.000000 -2.021760 1.544441 10.663060 -1.387858 -3.624463 4.567143 -1.897991 1.549035 10.678925 1.413217 1.028311 0.137113 -71.994425 -14.952700 32.118326 179.268966 -79.404635 -179.786224 -1.519581 1.423471 9.848338 -5.669542 -2.971658 1.483079 79.690337 -11.165473 7.013469 -170.131522 83.067566 -170.491199 -0.000000 -0.000000 0.000000 5.851667 0.563520 -22.694018 -1.671444 -0.121178 37.094874 -0.000000 -0.000000 0.000000 -2.565319 -2.427512 -16.832052 0.831039 -0.932958 24.739814 
0.484679 -0.035447 0.150312 -4.837355 -6.501182 -2.353745 -0.000000 -0.000000 0.000000 -0.578555 0.755124 4.565935 -2.011007 1.731857 10.284605 0.000000 0.000000 0.000000 -1.970909 1.485311 10.247939 -1.361853 -3.732664 4.607106 -1.888914 1.542807 10.355069 1.913008 1.070540 0.336757 -72.022320 -15.635023 31.224570 179.056054 -80.857245 -179.794067 -1.480704 1.378416 9.827333 -5.388796 -2.195466 1.558377 80.147922 -10.494389 6.839902 -165.059134 84.541664 -165.566266 -0.000000 -0.000000 0.000000 6.034607 1.211856 -22.156297 -1.701450 0.145565 35.897407 -0.000000 -0.000000 0.000000 -2.452508 -2.538905 -16.690722 0.836673 -0.729388 23.930532 
0.629688 -0.027416 0.232869 -5.133622 -6.063500 -2.286092 -0.000000 -0.000000 0.000000 -0.622813 0.575395 4.598010 -1.977718 1.651199 10.032291 0.000000 0.000000 0.000000 -1.923191 1.436592 9.944913 -1.106727 -3.389061 4.749521 -1.889276 1.525352 10.136647 2.010419 1.310427 0.466844 -71.768996 -16.341231 30.023836 179.497616 -82.265556 179.759595 -1.422449 1.327722 9.808575 -4.946539 -1.636321 1.547447 80.534372 -9.802854 6.448166 -159.644073 85.809397 -160.165735 -0.000000 -0.000000 0.000000 6.026803 1.392145 -21.451071 -1.562784 0.365107 34.646790 -0.000000 -0.000000 0.000000 -2.397475 -2.539844 -16.375638 0.817923 -0.637992 23.430340 
0.760571 -0.015520 0.319100 -5.292579 -5.849659 -2.189091 -0.000000 -0.000000 0.000000 -0.670734 0.441701 4.556914 -1.936128 1.581758 9.877732 0.000000 0.000000 0.000000 -1.894022 1.402699 9.798300 -0.831097 -2.984856 4.938355 -1.859600 1.485246 10.013258 1.925629 1.363431 0.541393 -71.386937 -17.052042 28.869431 -179.728416 -83.330833 179.024216 -1.366253 1.294196 9.788926 -4.559251 -1.355937 1.522156 80.588486 -9.476822 6.048877 -156.712493 86.371904 -157.199331 -0.000000 -0.000000 0.000000 5.995951 1.420152 -20.969910 -1.354099 0.531387 33.889769 -0.000000 -0.000000 0.000000 -2.367456 -2.536797 -16.118573 0.804366 -0.599650 23.148238 
0.868465 0.000769 0.398428 -5.294737 -5.819320 -2.072964 -0.000000 -0.000000 0.000000 -0.667018 0.418031 4.472703 -1.869210 1.536131 9.765181 0.000000 0.000000 0.000000 -1.854065 1.396328 9.753082 -0.495895 -2.556133 4.989389 -1.815191 1.448436 9.921966 1.762702 1.262295 0.572949 -71.051030 -17.433170 27.998472 -178.961867 -83.867158 178.317016 -1.325828 1.298797 9.764925 -4.377323 -1.199316 1.496916 80.240151 -9.346345 5.894327 -156.629750 86.545681 -157.050352 -0.000000 -0.000000 0.000000 5.911334 1.411728 -20.686848 -1.187983 0.624019 33.614427 -0.000000 -0.000000 0.000000 -2.384982 -2.464005 -15.888537 0.802333 -0.570176 23.098775 
0.966766 0.020763 0.465085 -5.275960 -5.946349 -1.961412 -0.000000 -0.000000 0.000000 -0.638046 0.418710 4.420620 -1.796648 1.520759 9.709916 0.000000 0.000000 0.000000 -1.809276 1.410549 9.809763 -0.030435 -2.136423 4.867699 -1.759356 1.440190 9.852430 1.644216 1.110828 0.560974 -70.950938 -17.480943 27.547118 -179.809312 -83.941471 179.256735 -1.296731 1.318841 9.752024 -4.381521 -1.241342 1.462857 79.862479 -9.282455 5.832698 -159.188393 86.332365 -159.562937 -0.000000 -0.000000 0.000000 5.830085 1.415225 -20.532051 -1.066823 0.659742 33.606608 -0.000000 -0.000000 0.000000 -2.493138 -2.372430 -15.710474 0.799704 -0.558646 23.176829 
